<?xml version="1.0" standalone="no"?>
<!DOCTYPE svg PUBLIC "-//W3C//DTD SVG 20010904//EN" "http://www.w3.org/TR/2001/REC-SVG-20010904/DTD/svg10.dtd">
<svg xmlns="http://www.w3.org/2000/svg" version="1.0" width="500.000000pt" height="500.000000pt" viewBox="0 0 500.000000 500.000000" preserveAspectRatio="xMidYMid meet">
<metadata>
Created by potrace 1.16, written by Peter Selinger 2001-2019
<meta name="Producer" content="Online-Convert"/></metadata>
<g transform="translate(0.000000,500.000000) scale(0.100000,-0.100000)" fill="#000000" stroke="none">
<path d="M85 4986 c-17 -7 -43 -28 -58 -45 l-27 -33 0 -521 c0 -500 1 -523 20 -554 39 -64 27 -63 585 -63 l505 0 0 -1822 c0 -1801 0 -1823 20 -1856 11 -18 34 -41 52 -52 32 -19 52 -20 601 -20 604 0 594 -1 649 47 13 12 24 12 58 3 135 -36 444 -70 645 -70 626 0 1137 182 1460 521 232 244 359 554 384 941 23 353 -62 620 -286 895 -189 234 -509 461 -853 608 -518 220 -789 377 -847 489 -34 66 11 181 93 234 72 48 170 66 328 59 235 -10 466 -90 746 -256 79 -47 102 -56 142 -56 41 0 52 5 82 35 46 48 466 880 466 923 -1 70 -30 108 -136 173 -321 199 -645 319 -1009 374 -77 11 -167 30 -200 40 -59 20 -99 20 -1725 20 -1362 -1 -1671 -3 -1695 -14z m2207 -351 c-389 -290 -602 -703 -602 -1165 0 -355 125 -651 392 -926 l98 -101 0 -416 0 -417 -51 38 c-132 97 -140 102 -184 102 -32 0 -52 -7 -73 -25 -16 -13 -127 -190 -248 -392 l-219 -367 -5 1501 -5 1502 -30 32 c-57 60 -48 59 -585 59 l-490 0 0 325 0 325 1051 0 1052 0 -101 -75z m1323 33 c214 -33 376 -77 575 -155 100 -40 279 -124 318 -151 11 -7 -17 -70 -129 -293 -78 -156 -143 -285 -143 -286 -1 -1 -62 28 -136 65 -142 70 -275 119 -419 154 -67 17 -127 22 -274 25 -230 5 -284 -5 -435 -81 -88 -44 -116 -64 -156 -112 -28 -31 -51 -64 -52 -73 -1 -9 -15 -45 -30 -81 -26 -59 -29 -76 -29 -180 0 -109 2 -119 32 -183 43 -90 90 -146 188 -221 145 -113 310 -196 736 -371 460 -189 780 -442 936 -742 82 -156 98 -226 97 -423 0 -240 -38 -411 -130 -593 -61 -122 -118 -199 -219 -295 -174 -168 -403 -279 -700 -341 -163 -34 -288 -45 -505 -44 -318 0 -498 29 -804 130 -283 92 -412 152 -611 281 -55 35 -102 66 -103 67 -2 2 80 143 182 314 l186 310 88 -58 c48 -33 156 -95 240 -140 84 -45 163 -88 175 -96 37 -24 202 -84 290 -105 180 -44 441 -44 621 0 291 71 446 258 446 536 0 298 -195 486 -755 729 -202 88 -462 218 -545 273 -96 63 -374 336 -428 420 -254 393 -178 944 180 1318 221 230 520 376 853 417 57 7 390 -4 460 -15z m-909 -2552 c82 -41 244 -121 359 -179 455 -226 544 -314 491 -489 -19 -66 -58 -111 -124 -146 -91 -48 -148 -57 -342 -57 l-175 0 -125 43 c-69 23 -168 64 -220 91 l-95 48 -3 408 -2 407 44 -26 c24 -14 111 -59 192 -100z m-1169 -1637 c54 -37 130 -84 168 -105 127 -68 133 -64 -98 -64 l-207 0 0 131 c0 128 0 131 19 118 11 -8 64 -44 118 -80z"/>
</g>
</svg>
